solid initialWater
  facet normal 0 0 -1
    outer loop
      vertex 0 0 0
      vertex 0 0.0146 0
      vertex 0.1461 0.0146 0
    endloop
  endfacet
  facet normal 0 0 -1
    outer loop
      vertex 0 0 0
      vertex 0.1461 0.0146 0
      vertex 0.1461 0 0
    endloop
  endfacet
  facet normal 0 0 1
    outer loop
      vertex 0 0 0.292
      vertex 0.1461 0 0.292
      vertex 0.1461 0.0146 0.292
    endloop
  endfacet
  facet normal 0 0 1
    outer loop
      vertex 0 0 0.292
      vertex 0.1461 0.0146 0.292
      vertex 0 0.0146 0.292
    endloop
  endfacet
  facet normal 0 -1 0
    outer loop
      vertex 0 0 0
      vertex 0.1461 0 0
      vertex 0.1461 0 0.292
    endloop
  endfacet
  facet normal 0 -1 0
    outer loop
      vertex 0 0 0
      vertex 0.1461 0 0.292
      vertex 0 0 0.292
    endloop
  endfacet
  facet normal 0 1 0
    outer loop
      vertex 0 0.0146 0
      vertex 0 0.0146 0.292
      vertex 0.1461 0.0146 0.292
    endloop
  endfacet
  facet normal 0 1 0
    outer loop
      vertex 0 0.0146 0
      vertex 0.1461 0.0146 0.292
      vertex 0.1461 0.0146 0
    endloop
  endfacet
  facet normal -1 0 0
    outer loop
      vertex 0 0 0
      vertex 0 0 0.292
      vertex 0 0.0146 0.292
    endloop
  endfacet
  facet normal -1 0 0
    outer loop
      vertex 0 0 0
      vertex 0 0.0146 0.292
      vertex 0 0.0146 0
    endloop
  endfacet
  facet normal 1 0 0
    outer loop
      vertex 0.1461 0 0
      vertex 0.1461 0.0146 0
      vertex 0.1461 0.0146 0.292
    endloop
  endfacet
  facet normal 1 0 0
    outer loop
      vertex 0.1461 0 0
      vertex 0.1461 0.0146 0.292
      vertex 0.1461 0 0.292
    endloop
  endfacet
endsolid initialWater
