solid initialWater
  facet normal 0 0 -1
    outer loop
      vertex 0 0 0
      vertex 0 0.8 0
      vertex 1.2 0.8 0
    endloop
  endfacet
  facet normal 0 0 -1
    outer loop
      vertex 0 0 0
      vertex 1.2 0.8 0
      vertex 1.2 0 0
    endloop
  endfacet
  facet normal 0 0 1
    outer loop
      vertex 0 0 1.2
      vertex 1.2 0 1.2
      vertex 1.2 0.8 1.2
    endloop
  endfacet
  facet normal 0 0 1
    outer loop
      vertex 0 0 1.2
      vertex 1.2 0.8 1.2
      vertex 0 0.8 1.2
    endloop
  endfacet
  facet normal 0 -1 0
    outer loop
      vertex 0 0 0
      vertex 1.2 0 0
      vertex 1.2 0 1.2
    endloop
  endfacet
  facet normal 0 -1 0
    outer loop
      vertex 0 0 0
      vertex 1.2 0 1.2
      vertex 0 0 1.2
    endloop
  endfacet
  facet normal 0 1 0
    outer loop
      vertex 0 0.8 0
      vertex 0 0.8 1.2
      vertex 1.2 0.8 1.2
    endloop
  endfacet
  facet normal 0 1 0
    outer loop
      vertex 0 0.8 0
      vertex 1.2 0.8 1.2
      vertex 1.2 0.8 0
    endloop
  endfacet
  facet normal -1 0 0
    outer loop
      vertex 0 0 0
      vertex 0 0 1.2
      vertex 0 0.8 1.2
    endloop
  endfacet
  facet normal -1 0 0
    outer loop
      vertex 0 0 0
      vertex 0 0.8 1.2
      vertex 0 0.8 0
    endloop
  endfacet
  facet normal 1 0 0
    outer loop
      vertex 1.2 0 0
      vertex 1.2 0.8 0
      vertex 1.2 0.8 1.2
    endloop
  endfacet
  facet normal 1 0 0
    outer loop
      vertex 1.2 0 0
      vertex 1.2 0.8 1.2
      vertex 1.2 0 1.2
    endloop
  endfacet
endsolid initialWater
